<svg width="1200" height="700" viewBox="0 0 1200 700" fill="none" xmlns="http://www.w3.org/2000/svg" role="img" aria-label="Emergency leak repair placeholder image">
  <defs>
    <linearGradient id="bg" x1="0" y1="0" x2="1" y2="1">
      <stop offset="0" stop-color="#020617"/>
      <stop offset="1" stop-color="#0B1220"/>
    </linearGradient>
    <radialGradient id="glow" cx="0" cy="0" r="1" gradientUnits="userSpaceOnUse" gradientTransform="translate(930 210) rotate(210) scale(560 420)">
      <stop stop-color="#38BDF8" stop-opacity="0.30"/>
      <stop offset="1" stop-color="#38BDF8" stop-opacity="0"/>
    </radialGradient>
  </defs>
  <rect width="1200" height="700" fill="url(#bg)"/>
  <rect width="1200" height="700" fill="url(#glow)"/>
  <g opacity="0.82">
    <path d="M250 270h520c30 0 55 25 55 55v20H195v-20c0-30 25-55 55-55z" fill="#0F172A" stroke="#334155" stroke-width="6"/>
    <path d="M800 310h140" stroke="#FBBF24" stroke-width="10" stroke-linecap="round"/>
    <path d="M940 310c0 35-28 63-63 63s-63-28-63-63 28-63 63-63 63 28 63 63z" fill="#0F172A" stroke="#334155" stroke-width="6"/>
    <path d="M600 420c0 0 30 40 30 70 0 22-18 40-40 40s-40-18-40-40c0-30 50-70 50-70z" fill="#38BDF8" fill-opacity="0.65"/>
    <path d="M680 455c0 0 22 28 22 50 0 16-13 29-29 29s-29-13-29-29c0-22 36-50 36-50z" fill="#38BDF8" fill-opacity="0.45"/>
  </g>
  <text x="72" y="92" font-family="ui-sans-serif, system-ui, -apple-system, Segoe UI, Roboto, Arial" font-size="46" font-weight="900" fill="#E2E8F0">Emergency Leak Repair</text>
  <text x="72" y="140" font-family="ui-sans-serif, system-ui, -apple-system, Segoe UI, Roboto, Arial" font-size="24" font-weight="600" fill="#94A3B8">Notting Hill Gate • Isolation • Repair • Damage prevention</text>
</svg>
